<svg viewBox="0 0 260 120" width="260" height="120" fill="none" xmlns="http://www.w3.org/2000/svg">
  <rect width="260" height="120" rx="6" fill="#1a1a2e"/>
  <!-- Document page -->
  <rect x="18" y="8" width="62" height="82" rx="3" fill="rgba(66,133,244,0.1)" stroke="rgba(66,133,244,0.35)" stroke-width="1"/>
  <rect x="18" y="8" width="62" height="14" rx="3" fill="rgba(66,133,244,0.2)"/>
  <rect x="18" y="19" width="62" height="3" fill="rgba(66,133,244,0.2)"/>
  <!-- Document text lines -->
  <rect x="26" y="30" width="38" height="2.5" rx="1" fill="white" opacity="0.4"/>
  <rect x="26" y="38" width="46" height="2.5" rx="1" fill="white" opacity="0.35"/>
  <rect x="26" y="46" width="32" height="2.5" rx="1" fill="white" opacity="0.3"/>
  <rect x="26" y="54" width="42" height="2.5" rx="1" fill="white" opacity="0.35"/>
  <rect x="26" y="62" width="36" height="2.5" rx="1" fill="white" opacity="0.3"/>
  <rect x="26" y="70" width="44" height="2.5" rx="1" fill="white" opacity="0.25"/>
  <rect x="26" y="78" width="30" height="2.5" rx="1" fill="white" opacity="0.2"/>
  <!-- Animated scan beam -->
  <rect x="18" y="28" width="62" height="2" rx="1" fill="#4285F4" opacity="0.9">
    <animate attributeName="y" values="28;82;28" dur="2.5s" calcMode="spline" keySplines="0.4 0 0.6 1;0.4 0 0.6 1" keyTimes="0;0.5;1" repeatCount="indefinite"/>
  </rect>
  <rect x="18" y="28" width="62" height="10" rx="2" fill="#4285F4" opacity="0.08">
    <animate attributeName="y" values="28;82;28" dur="2.5s" calcMode="spline" keySplines="0.4 0 0.6 1;0.4 0 0.6 1" keyTimes="0;0.5;1" repeatCount="indefinite"/>
  </rect>
  <!-- Flow lines from doc to extracted data -->
  <line x1="88" y1="30" x2="148" y2="20" stroke="#4285F4" stroke-width="0.8" stroke-dasharray="4 3" opacity="0.3">
    <animate attributeName="stroke-dashoffset" values="0;-7" dur="0.8s" repeatCount="indefinite"/>
  </line>
  <line x1="88" y1="52" x2="148" y2="52" stroke="#4285F4" stroke-width="0.8" stroke-dasharray="4 3" opacity="0.3">
    <animate attributeName="stroke-dashoffset" values="0;-7" dur="0.8s" repeatCount="indefinite"/>
  </line>
  <line x1="88" y1="74" x2="148" y2="84" stroke="#4285F4" stroke-width="0.8" stroke-dasharray="4 3" opacity="0.3">
    <animate attributeName="stroke-dashoffset" values="0;-7" dur="0.8s" repeatCount="indefinite"/>
  </line>
  <!-- Flowing particles -->
  <circle r="2.5" fill="#4285F4">
    <animate attributeName="cx" values="88;148" dur="1.4s" repeatCount="indefinite"/>
    <animate attributeName="cy" values="30;20" dur="1.4s" repeatCount="indefinite"/>
    <animate attributeName="opacity" values="0.8;0.15" dur="1.4s" repeatCount="indefinite"/>
  </circle>
  <circle r="2" fill="white">
    <animate attributeName="cx" values="88;148" dur="1.6s" begin="0.4s" repeatCount="indefinite"/>
    <animate attributeName="cy" values="52;52" dur="1.6s" begin="0.4s" repeatCount="indefinite"/>
    <animate attributeName="opacity" values="0.6;0.1" dur="1.6s" begin="0.4s" repeatCount="indefinite"/>
  </circle>
  <circle r="2.5" fill="#4285F4">
    <animate attributeName="cx" values="88;148" dur="1.8s" begin="0.8s" repeatCount="indefinite"/>
    <animate attributeName="cy" values="74;84" dur="1.8s" begin="0.8s" repeatCount="indefinite"/>
    <animate attributeName="opacity" values="0.7;0.1" dur="1.8s" begin="0.8s" repeatCount="indefinite"/>
  </circle>
  <!-- Extracted structured data boxes -->
  <rect x="152" y="8" width="88" height="24" rx="3" fill="rgba(66,133,244,0.08)" stroke="rgba(66,133,244,0.3)" stroke-width="1">
    <animate attributeName="opacity" values="0.6;1;0.6" dur="3s" repeatCount="indefinite"/>
  </rect>
  <rect x="158" y="14" width="16" height="3" rx="1" fill="#4285F4" opacity="0.7"/>
  <rect x="178" y="14" width="54" height="3" rx="1" fill="white" opacity="0.35"/>
  <rect x="158" y="22" width="12" height="3" rx="1" fill="#4285F4" opacity="0.7"/>
  <rect x="174" y="22" width="40" height="3" rx="1" fill="white" opacity="0.35"/>
  <rect x="152" y="40" width="88" height="24" rx="3" fill="rgba(66,133,244,0.08)" stroke="rgba(66,133,244,0.3)" stroke-width="1">
    <animate attributeName="opacity" values="0.6;1;0.6" dur="3s" begin="0.5s" repeatCount="indefinite"/>
  </rect>
  <rect x="158" y="46" width="20" height="3" rx="1" fill="#4285F4" opacity="0.7"/>
  <rect x="182" y="46" width="48" height="3" rx="1" fill="white" opacity="0.35"/>
  <rect x="158" y="54" width="14" height="3" rx="1" fill="#4285F4" opacity="0.7"/>
  <rect x="176" y="54" width="36" height="3" rx="1" fill="white" opacity="0.35"/>
  <rect x="152" y="72" width="88" height="24" rx="3" fill="rgba(66,133,244,0.08)" stroke="rgba(66,133,244,0.3)" stroke-width="1">
    <animate attributeName="opacity" values="0.6;1;0.6" dur="3s" begin="1s" repeatCount="indefinite"/>
  </rect>
  <rect x="158" y="78" width="18" height="3" rx="1" fill="#4285F4" opacity="0.7"/>
  <rect x="180" y="78" width="50" height="3" rx="1" fill="white" opacity="0.35"/>
  <rect x="158" y="86" width="24" height="3" rx="1" fill="#4285F4" opacity="0.7"/>
  <rect x="186" y="86" width="30" height="3" rx="1" fill="white" opacity="0.35"/>
  <!-- Verification badge -->
  <circle cx="245" cy="108" r="8" fill="rgba(66,133,244,0.2)" stroke="rgba(66,133,244,0.5)" stroke-width="1">
    <animate attributeName="opacity" values="0.5;1;0.5" dur="2s" repeatCount="indefinite"/>
  </circle>
  <path d="M241 108l3 3 5-6" stroke="white" stroke-width="1.5" stroke-linecap="round" stroke-linejoin="round" opacity="0.9"/>
</svg>